<svg width="380" height="356" viewBox="0 0 380 356" fill="none" xmlns="http://www.w3.org/2000/svg">
<mask id="mask0_63_132" style="mask-type:luminance" maskUnits="userSpaceOnUse" x="0" y="0" width="380" height="356">
<path d="M0 0H380V355.964H0V0Z" fill="white"/>
</mask>
<g mask="url(#mask0_63_132)">
<path d="M382.201 201.719C382.201 313.124 296.719 403.435 191.271 403.435C85.8256 403.435 0.343018 313.124 0.343018 201.719C0.343018 90.3135 85.8256 0 191.271 0C296.719 0 382.201 90.3135 382.201 201.719Z" fill="#F2E6DC"/>
</g>
<path d="M315.159 14.6715C312.391 21.5897 314.306 51.7152 314.306 51.7152C314.306 51.7152 336.101 32.1808 338.867 25.2626C341.637 18.3444 338.574 10.3672 332.025 7.44139C325.481 4.51815 317.925 7.75334 315.159 14.6715Z" fill="#E6D0BE"/>
<path d="M278.778 140.97C278.716 140.97 278.654 140.96 278.597 140.934C278.364 140.829 278.254 140.542 278.352 140.295L327.325 17.947C327.423 17.698 327.692 17.5823 327.928 17.6879C328.159 17.7911 328.271 18.0753 328.171 18.3244L279.202 140.673C279.124 140.861 278.957 140.97 278.778 140.97Z" fill="#F7F1EB"/>
<path d="M337.44 48.6284C332.54 52.0297 320.781 73.6093 320.781 73.6093C320.781 73.6093 344.198 70.7766 349.096 67.3729C353.996 63.9767 355.361 57.0208 352.14 51.846C348.924 46.6687 342.342 45.2272 337.44 48.6284Z" fill="#E6D0BE"/>
<path d="M299.692 88.731C299.541 88.731 299.394 88.653 299.308 88.5122C299.17 88.2857 299.227 87.9864 299.437 87.8379L343.469 57.2823C343.679 57.1364 343.967 57.1968 344.105 57.4207C344.246 57.6445 344.186 57.9464 343.974 58.0923L299.944 88.6505C299.868 88.7059 299.777 88.731 299.692 88.731Z" fill="#F7F1EB"/>
<path d="M289.281 59.6975C290.482 66.2987 283.469 92.2808 283.469 92.2808C283.469 92.2808 267.858 70.8798 266.66 64.2811C265.462 57.6799 269.557 51.3051 275.801 50.0372C282.049 48.7744 288.083 53.0988 289.281 59.6975Z" fill="#E6D0BE"/>
<path d="M287.924 117.294C287.707 117.294 287.514 117.133 287.471 116.899L277.549 62.2407C277.501 61.9766 277.668 61.7225 277.916 61.6722C278.164 61.6194 278.407 61.7929 278.454 62.0571L288.374 116.718C288.424 116.98 288.259 117.236 288.009 117.287C287.981 117.292 287.952 117.294 287.924 117.294Z" fill="#F7F1EB"/>
<path d="M177.935 54.3743C183.998 61.0208 217.151 73.2873 217.151 73.2873C217.151 73.2873 206.784 37.8286 200.721 31.1796C194.658 24.5331 184.646 24.3344 178.352 30.7394C172.061 37.1443 171.875 47.7253 177.935 54.3743Z" fill="#E6D0BE"/>
<path d="M294.944 159.088C294.827 159.088 294.706 159.037 294.615 158.939L187.393 41.3531C187.214 41.1593 187.221 40.8524 187.405 40.6663C187.588 40.4801 187.879 40.4851 188.055 40.6788L295.275 158.263C295.454 158.459 295.449 158.766 295.263 158.952C295.177 159.042 295.063 159.088 294.944 159.088Z" fill="#F7F1EB"/>
<path d="M225.029 44.1706C226.296 51.6624 243.701 76.13 243.701 76.13C243.701 76.13 251.983 46.8046 250.711 39.3078C249.442 31.8135 242.659 26.8274 235.57 28.1708C228.476 29.5117 223.757 36.6764 225.029 44.1706Z" fill="#E6D0BE"/>
<path d="M249.168 108.874C248.949 108.874 248.753 108.711 248.715 108.474L237.3 41.1368C237.254 40.8726 237.421 40.6211 237.674 40.5733C237.924 40.5255 238.16 40.7016 238.205 40.9657L249.62 108.303C249.668 108.568 249.499 108.819 249.249 108.869C249.223 108.874 249.196 108.874 249.168 108.874Z" fill="#F7F1EB"/>
<path d="M213.602 107.02C221.241 108.779 245.647 129.704 245.647 129.704C245.647 129.704 215.214 138.006 207.572 136.248C199.935 134.489 195.09 126.519 196.757 118.449C198.42 110.379 205.964 105.262 213.602 107.02Z" fill="#E6D0BE"/>
<path d="M274.038 136.728C274.004 136.728 273.971 136.726 273.94 136.715L210.676 122.155C210.426 122.099 210.267 121.838 210.321 121.576C210.376 121.314 210.621 121.148 210.872 121.206L274.135 135.767C274.383 135.822 274.54 136.082 274.486 136.346C274.44 136.572 274.25 136.728 274.038 136.728Z" fill="#F7F1EB"/>
<path d="M291.856 311.554H312.472L314.611 222.453H289.722L291.856 311.554Z" fill="#E2A18D"/>
<path d="M271.801 325.3H312.894V305.436H290.601C280.217 305.436 271.801 314.329 271.801 325.3Z" fill="#D3BBA3"/>
<path d="M290.901 309.879C290.782 309.879 290.665 309.833 290.577 309.738L286.949 305.906C286.771 305.718 286.771 305.408 286.949 305.217C287.128 305.028 287.421 305.028 287.602 305.217L291.228 309.048C291.406 309.24 291.406 309.549 291.228 309.738C291.137 309.833 291.02 309.879 290.901 309.879Z" fill="#363E44"/>
<path d="M286.78 311.187C286.663 311.187 286.544 311.137 286.456 311.041L282.83 307.215C282.652 307.023 282.652 306.714 282.83 306.525C283.009 306.337 283.3 306.337 283.481 306.525L287.106 310.357C287.285 310.545 287.285 310.852 287.106 311.041C287.016 311.137 286.899 311.187 286.78 311.187Z" fill="#363E44"/>
<path d="M339.884 311.665L360.137 307.604L349.779 267.64L346.506 219.643L322.053 224.549L327.358 270.694L339.884 311.665Z" fill="#E2A18D"/>
<path d="M327.184 334.703L365.778 319.803L359.327 301.146L338.388 309.232C328.635 312.995 323.618 324.399 327.184 334.703Z" fill="#D3BBA3"/>
<path d="M339.955 313.325C339.889 313.325 339.827 313.31 339.765 313.277L335.112 310.996C334.884 310.882 334.784 310.593 334.888 310.352C334.996 310.105 335.267 309.999 335.498 310.115L340.151 312.397C340.379 312.51 340.479 312.799 340.375 313.043C340.294 313.222 340.129 313.325 339.955 313.325Z" fill="#363E44"/>
<path d="M336.508 316.047C336.444 316.047 336.38 316.032 336.318 316.002L331.668 313.717C331.437 313.604 331.334 313.315 331.441 313.071C331.551 312.827 331.823 312.721 332.054 312.834L336.706 315.119C336.935 315.232 337.035 315.521 336.928 315.765C336.851 315.941 336.685 316.047 336.508 316.047Z" fill="#363E44"/>
<path d="M289.336 186.164L284.893 260.282L316.436 261.205L317.989 232.335L323.097 261.66L354.637 258.875L347.526 186.164H289.336Z" fill="#8B865C"/>
<path d="M285.884 140.992C275.05 140.612 243.698 141.415 243.615 128.343C243.546 117.531 274.102 118.084 284.891 117.77C285.222 125.508 285.553 133.251 285.884 140.992Z" fill="#E2A18D"/>
<mask id="mask1_63_132" style="mask-type:luminance" maskUnits="userSpaceOnUse" x="342" y="133" width="38" height="43">
<path d="M342.731 133.133H380V175.638H342.731V133.133Z" fill="white"/>
</mask>
<g mask="url(#mask1_63_132)">
<path d="M358.177 133.214C365.581 141.578 388.292 164.431 379.602 173.739C372.413 181.435 351.178 158.215 343.336 150.376C348.281 144.655 353.231 138.937 358.177 133.214Z" fill="#E2A18D"/>
</g>
<path d="M361.45 132.217C361.45 132.217 342.612 116.326 317.277 116.326C291.885 116.326 275.896 116.975 275.896 116.975L290.275 154.069L286.673 199.472L349.973 195.716L346.676 154.069L361.45 132.217Z" fill="white"/>
<path d="M314.423 152.683L316.133 201.158L344.524 189.314L314.423 152.683Z" fill="#EFBC73"/>
<path d="M371.515 156.736C363.141 158.66 343.212 162.162 341.278 162.585C337.666 163.377 318.385 168.157 318.735 171.176C318.902 172.615 322.658 171.873 323.919 171.581C323.009 172.343 319.211 174.886 319.79 176.393C320.469 178.164 325.431 175.87 325.529 175.885C324.533 176.564 320.45 179.095 320.843 180.245C321.351 181.739 325.817 180.584 327.139 180.177C327.053 180.411 322.849 182.217 323.387 184.023C323.778 185.352 327.873 184.29 329.652 183.832C332.861 183.133 370.617 177.113 377.496 175.047C380.191 174.242 375.622 158.949 371.515 156.736Z" fill="#E2A18D"/>
<path d="M353.393 160.723C353.177 160.723 352.979 160.559 352.941 160.325C352.893 160.061 353.06 159.807 353.31 159.759C357.588 158.937 368.723 156.65 371.424 156.061C371.677 156.011 371.915 156.179 371.967 156.441C372.017 156.703 371.858 156.959 371.608 157.015C368.904 157.603 357.758 159.89 353.477 160.715C353.446 160.723 353.42 160.723 353.393 160.723Z" fill="#363E44"/>
<path d="M323.847 171.933C323.692 171.933 323.542 171.852 323.454 171.701C323.323 171.475 323.39 171.175 323.604 171.035C324.278 170.592 324.988 170.199 325.712 169.86C327.015 169.253 328.392 168.813 329.805 168.557C330.06 168.514 330.293 168.692 330.334 168.954C330.379 169.218 330.21 169.47 329.96 169.518C328.621 169.762 327.315 170.174 326.086 170.75C325.4 171.07 324.728 171.442 324.09 171.86C324.014 171.91 323.93 171.933 323.847 171.933Z" fill="#363E44"/>
<path d="M325.441 176.287C325.267 176.287 325.102 176.187 325.026 176.013C324.917 175.769 325.012 175.48 325.243 175.362C325.393 175.286 325.548 175.211 325.705 175.14C327.003 174.532 328.38 174.096 329.795 173.837C330.053 173.794 330.284 173.971 330.324 174.235C330.369 174.499 330.2 174.75 329.95 174.798C328.611 175.037 327.306 175.452 326.077 176.026C325.924 176.099 325.779 176.169 325.638 176.242C325.574 176.272 325.507 176.287 325.441 176.287Z" fill="#363E44"/>
<path d="M327.218 180.602C327.03 180.602 326.846 180.473 326.784 180.272C326.701 180.018 326.83 179.744 327.07 179.653C327.949 179.339 328.862 179.09 329.783 178.924C330.038 178.878 330.272 179.057 330.315 179.321C330.358 179.585 330.188 179.837 329.938 179.882C329.066 180.041 328.202 180.272 327.368 180.574C327.318 180.594 327.268 180.602 327.218 180.602Z" fill="#363E44"/>
<path d="M265.174 126.125C258.013 103.423 252.103 87.5815 249.418 77.3653C248.21 72.7817 247.834 67.9465 244.539 64.9755C243.079 63.6572 241.361 62.5881 240.556 63.8157C239.296 65.7377 244.217 69.4006 243.15 70.9352C242.081 72.4773 236.187 70.1125 236.078 67.861C235.989 66.0446 240.015 66.1956 239.458 64.1227C239.079 62.7063 236.847 62.7868 235.272 63.1768C234.774 63.3025 232.673 63.8233 231.692 66.017C230.651 68.3339 231.754 70.5251 231.873 70.7465C230.508 70.5176 229.248 71.1163 228.826 72.0697C228.266 73.3377 229.117 75.4534 231.154 76.0445C230.891 76.0169 228.938 75.8609 228.466 76.7993C228.007 77.72 228.995 79.647 231.332 81.1489C229.777 81.0935 228.736 81.6067 228.559 82.1904C228.064 83.8206 229.967 86.3036 236.168 89.662C237.433 95.2871 243.753 129.767 243.753 129.767C243.753 129.767 252.35 136.416 265.174 126.125Z" fill="#E2A18D"/>
<path d="M265.176 126.61C264.983 126.61 264.804 126.482 264.738 126.278C263.961 123.813 263.199 121.428 262.451 119.121C262.37 118.869 262.499 118.593 262.739 118.505C262.98 118.417 263.239 118.552 263.323 118.809C264.068 121.116 264.833 123.503 265.612 125.971C265.693 126.225 265.562 126.499 265.321 126.585C265.274 126.605 265.224 126.61 265.176 126.61Z" fill="#363E44"/>
<path d="M232.812 85.6544C232.566 85.6544 232.361 85.4506 232.349 85.1865C232.342 84.9198 232.54 84.6934 232.795 84.6833C235.151 84.5827 236.406 83.667 236.425 83.2997C236.442 82.9877 235.489 81.9966 233.252 81.6117L232.833 81.5412L232.85 81.0607C232.874 80.7941 233.097 80.5878 233.34 80.5953C235.796 80.6481 236.983 79.9186 237.061 79.5362C237.161 79.0331 235.894 77.5966 233.217 76.7438L232.819 76.6155L232.881 76.1501C232.928 75.891 233.157 75.7123 233.407 75.7425C235.763 76.0142 237.214 75.2067 237.333 74.696C237.483 74.0444 236.159 72.4067 233.545 71.6872C233.302 71.6193 233.152 71.3552 233.217 71.096C233.281 70.8344 233.531 70.6784 233.779 70.7464C236.821 71.5816 238.536 73.5841 238.226 74.9249C238.026 75.8004 236.957 76.4444 235.518 76.6733C237.171 77.5815 238.16 78.7513 237.959 79.7349C237.795 80.5702 236.847 81.0959 235.637 81.3601C236.714 81.901 237.381 82.628 237.345 83.35C237.288 84.5349 235.303 85.5487 232.831 85.6544H232.812Z" fill="#363E44"/>
<path d="M243.543 88.7262C243.341 88.7262 243.157 88.5854 243.1 88.3715C242.907 87.6395 242.4 86.2533 241.118 85.1565C239.615 83.8684 237.94 83.7502 237.283 83.7603C237.047 83.7603 236.818 83.5489 236.818 83.2798C236.814 83.0131 237.018 82.7917 237.271 82.7867C238.193 82.7741 240.025 82.9678 241.699 84.4018C243.179 85.6697 243.767 87.2697 243.986 88.1124C244.053 88.3715 243.912 88.6382 243.667 88.7086C243.629 88.7212 243.584 88.7262 243.543 88.7262Z" fill="#363E44"/>
<path d="M239.915 62.3566L226.11 103.73H253.715L239.915 62.3566Z" fill="#D87355"/>
<path d="M316.884 125.36H317.71C322.413 125.36 326.22 121.337 326.22 116.374V92.7764C326.22 87.8129 322.413 83.7903 317.71 83.7903H316.884C312.186 83.7903 308.375 87.8129 308.375 92.7764V116.374C308.375 121.337 312.186 125.36 316.884 125.36Z" fill="#E2A18D"/>
<path d="M320.707 54.4574C319.716 54.1027 310.171 50.8449 302.786 56.1203C297.293 60.0498 295.313 66.3642 293.576 77.5012C291.53 90.618 292.111 98.7815 295.196 102.248C300.066 107.725 319.411 103.088 328.464 93.4658C334.998 86.52 336.823 75.9188 333.671 66.6258C330.522 57.3605 321.339 54.6838 320.707 54.4574Z" fill="#E2A18D"/>
<path d="M307.422 105.116C307.2 105.116 307.005 104.947 306.967 104.708C306.926 104.442 307.093 104.193 307.343 104.15C311.136 103.488 315.083 102.168 318.759 100.336C318.99 100.223 319.264 100.326 319.373 100.568C319.48 100.809 319.383 101.101 319.152 101.214C315.4 103.086 311.369 104.434 307.496 105.108C307.472 105.113 307.446 105.116 307.422 105.116Z" fill="#363E44"/>
<path d="M342.683 69.5162C339.548 59.3377 329.447 55.5591 327.944 55.0233C321.672 49.2623 312.989 47.4309 305.218 50.2661C293.891 54.3994 290.723 66.1728 290.48 67.1364C295.308 67.4835 301.764 68.8521 305.947 70.7866L311.974 64.3238L308.87 72.4394C311.948 74.4696 315.497 77.569 316.684 79.896C316.979 79.6545 319.447 78.1677 321.774 78.9526C324.6 79.901 325.843 83.2771 325.076 86.1701C324.014 90.1801 320.838 92.8241 320.162 93.3072C325.129 97.5738 328.923 97.4128 330.4 97.2015C339.272 95.9285 346.249 81.0859 342.683 69.5162Z" fill="#363E44"/>
<path d="M311.805 78.2281C311.805 78.2281 309.899 82.8218 306.228 84.0343C302.56 85.2469 298.517 82.6155 298.517 82.6155C298.517 82.6155 299.017 81.4155 299.989 80.0822C300.925 78.8042 305.132 79.9287 305.132 79.9287C305.132 79.9287 306.974 76.4596 308.222 76.7463C310.302 77.2218 311.805 78.2281 311.805 78.2281Z" fill="white"/>
<path d="M304.091 76.8092C302.286 77.4054 300.909 78.8167 299.977 80.1023C300.011 80.3085 300.051 80.5148 300.113 80.7186C300.854 83.2318 303.384 84.6305 305.761 83.8456C308.136 83.0607 309.463 80.3891 308.72 77.8759C308.599 77.4683 308.427 77.091 308.22 76.7438C306.952 76.447 305.495 76.3463 304.091 76.8092Z" fill="#363E44"/>
<path d="M320.267 89.1009C320.128 89.1009 319.99 89.0355 319.9 88.9097C319.747 88.6984 319.783 88.3915 319.986 88.228C321.548 86.9651 321.834 84.9802 321.119 83.9236C320.488 82.9878 319.214 82.9349 318.945 82.9349H318.935C318.682 82.9349 318.475 82.7186 318.475 82.4519C318.473 82.1827 318.68 81.9639 318.933 81.9639H318.942C319.297 81.9639 320.977 82.0368 321.867 83.3576C322.828 84.7789 322.594 87.3399 320.545 89.0003C320.462 89.0682 320.362 89.1009 320.267 89.1009Z" fill="#363E44"/>
<path d="M294.47 86.55C294.336 86.55 294.205 86.4871 294.112 86.3714C293.367 85.4079 293.107 84.5878 293.314 83.8632C293.467 83.3425 293.815 83.0683 294.153 82.8066C294.377 82.6331 294.608 82.4519 294.841 82.1727C295.261 81.6721 295.532 81.023 295.654 80.2507C295.697 79.9865 295.932 79.8054 296.183 79.8507C296.435 79.8935 296.604 80.145 296.561 80.4117C296.414 81.3651 296.066 82.1752 295.532 82.8142C295.235 83.1714 294.937 83.4029 294.699 83.589C294.401 83.823 294.253 83.9437 294.196 84.15C294.058 84.6255 294.463 85.2871 294.825 85.755C294.987 85.9613 294.958 86.2682 294.76 86.4368C294.677 86.5123 294.572 86.55 294.47 86.55Z" fill="#363E44"/>
<path d="M299.682 92.4493C299.053 92.4493 298.419 92.3512 297.814 92.1524C297.571 92.0719 297.438 91.7977 297.512 91.5436C297.586 91.287 297.845 91.1411 298.086 91.2216C298.858 91.4757 299.68 91.5411 300.463 91.4153C301.921 91.1814 302.924 90.3462 303.391 89.8657C303.575 89.6795 303.863 89.6871 304.041 89.8782C304.218 90.072 304.213 90.3814 304.03 90.5675C303.482 91.1235 302.312 92.0996 300.602 92.3763C300.297 92.4241 299.989 92.4493 299.682 92.4493Z" fill="#363E44"/>
<path d="M144.02 262.022V336.394H174.231C173.293 333.103 172.783 329.614 172.783 325.997C172.783 306.125 188.034 290.01 206.843 290.01C225.658 290.01 240.906 306.125 240.906 325.997C240.906 329.614 240.399 333.103 239.458 336.394H269.671V262.022H144.02Z" fill="#D87355"/>
<path d="M219.998 262.022H143.167V228.033H219.998V262.022Z" fill="#8B865C"/>
<path d="M186.066 228.051H153.835V194.094H186.066V228.051Z" fill="#8B865C"/>
<path d="M201.719 194.167H169.488V160.212H201.719V194.167Z" fill="#EFBC73"/>
<path d="M197.655 160.413H165.424V126.459H197.655V160.413Z" fill="#8B865C"/>
<path d="M268.113 228.068H191.283V194.081H268.113V228.068Z" fill="#D87355"/>
<path d="M342.774 335.395H310.226V261.821H342.774V335.395Z" fill="#EFBC73"/>
<path d="M324.55 262.022H247.719V228.033H324.55V262.022Z" fill="#EFBC73"/>
<path d="M345.925 321.73C345.925 338.303 333.209 351.742 317.52 351.742C301.833 351.742 289.115 338.303 289.115 321.73C289.115 305.157 301.833 291.72 317.52 291.72C333.209 291.72 345.925 305.157 345.925 321.73Z" fill="#D87355"/>
<path d="M314.471 295.426C299.063 295.426 286.528 308.671 286.528 324.953C286.528 341.234 299.063 354.479 314.471 354.479C329.881 354.479 342.419 341.234 342.419 324.953C342.419 308.671 329.881 295.426 314.471 295.426ZM314.471 355.448C298.555 355.448 285.606 341.77 285.606 324.953C285.606 308.138 298.555 294.455 314.471 294.455C330.388 294.455 343.338 308.138 343.338 324.953C343.338 341.77 330.388 355.448 314.471 355.448Z" fill="white"/>
<mask id="mask2_63_132" style="mask-type:luminance" maskUnits="userSpaceOnUse" x="181" y="332" width="56" height="24">
<path d="M181.123 332.135H236.618V355.964H181.123V332.135Z" fill="white"/>
</mask>
<g mask="url(#mask2_63_132)">
<path d="M208.994 366.306L181.282 349.405L208.821 332.605L236.53 349.511L208.994 366.306Z" fill="#8B865C"/>
</g>
<mask id="mask3_63_132" style="mask-type:luminance" maskUnits="userSpaceOnUse" x="208" y="348" width="30" height="8">
<path d="M208.566 348.879H237.228V355.964H208.566V348.879Z" fill="white"/>
</mask>
<g mask="url(#mask3_63_132)">
<path d="M236.699 382.995L208.99 399.898V366.301L236.699 349.4V382.995Z" fill="#D87355"/>
</g>
<mask id="mask4_63_132" style="mask-type:luminance" maskUnits="userSpaceOnUse" x="181" y="348" width="29" height="8">
<path d="M181.123 348.879H209.175V355.964H181.123V348.879Z" fill="white"/>
</mask>
<g mask="url(#mask4_63_132)">
<path d="M208.982 399.898L181.27 382.995V349.4L208.982 366.301V399.898Z" fill="#EFBC73"/>
</g>
<path d="M63.7117 135.951C76.7351 125.138 106.215 98.067 109.19 95.5462C114.755 90.8318 145.242 66.3566 149.063 70.6232C150.888 72.6584 145.216 77.6546 143.253 79.2848C145.454 78.7967 153.711 75.9464 155.126 78.7112C156.789 81.964 147.441 86.9501 147.343 87.1237C149.53 86.3866 158.127 83.0784 159.264 85.1086C160.745 87.7501 153.618 93.3651 151.414 94.9399C151.848 95.0934 159.573 90.696 161.467 93.7676C162.856 96.0217 156.31 101.164 153.477 103.4C148.537 107.591 93.5629 159.629 82.1784 167.92C77.7189 171.168 61.7773 145.148 63.7117 135.951Z" fill="#84524D"/>
<path d="M63.4377 136.192C63.302 136.192 63.1685 136.132 63.078 136.014C62.9184 135.802 62.9494 135.498 63.1471 135.329C67.304 131.797 84.2438 117.076 90.6733 111.355C90.8687 111.181 91.1569 111.209 91.3213 111.413C91.4857 111.619 91.4618 111.923 91.2665 112.097C84.8346 117.823 67.8853 132.555 63.7236 136.087C63.6402 136.16 63.5378 136.192 63.4377 136.192Z" fill="#363E44"/>
<path d="M146.972 98.7587C146.843 98.7587 146.714 98.7034 146.624 98.5902C146.459 98.3889 146.479 98.082 146.671 97.9084C148.025 96.6757 149.478 95.5562 150.99 94.5751C151.207 94.4367 151.491 94.5072 151.624 94.7361C151.757 94.965 151.688 95.2644 151.472 95.4053C150.002 96.3562 148.589 97.4455 147.272 98.643C147.184 98.721 147.079 98.7587 146.972 98.7587Z" fill="#363E44"/>
<path d="M177.402 101.624H142.01V64.2334H177.402V101.624Z" fill="#D87355"/>
<path d="M135.308 76.1551C138.432 74.4571 139.411 72.613 143.305 71.4659C144.163 71.2118 146.636 71.3879 147.52 71.4885C154.395 72.2634 157.26 72.8319 157.036 74.2407C156.712 75.569 152.927 76.218 148.687 76.7816C148.106 76.8595 147.577 77.1715 147.208 77.652C142.474 83.7903 140.926 89.2016 137.641 91.2946L135.308 76.1551Z" fill="#84524D"/>
<path d="M68.9644 113.345L106.555 154.695C106.555 154.695 82.7692 171.221 80.4156 186.624C79.4461 192.959 88.1196 198.134 95.5807 202.322L45.0973 246.662C45.0973 246.662 -16.8063 167.12 68.9644 113.345Z" fill="white"/>
<path d="M129.694 163.397C125.887 154.942 122.964 150.366 117.861 148.479C111.005 145.946 104.376 150.67 103.69 151.173C103.254 151.495 96.7741 155.677 96.4025 163.739C96.1381 169.548 98.0009 175.317 101.508 179.606C103.925 182.567 104.311 186.813 102.418 190.177L90.5161 211.319C91.0568 216.944 95.8117 221.039 101.136 220.468L102.341 220.338C107.665 219.766 118.295 215.439 117.754 209.814L127.114 187.314C130.461 186.652 133.033 185.332 133.932 183.41C135.537 179.966 134.175 173.352 129.694 163.397Z" fill="#84524D"/>
<path d="M127.238 187.507C127.211 187.507 127.183 187.502 127.154 187.497L123.043 186.707C122.792 186.659 122.626 186.408 122.673 186.141C122.719 185.877 122.957 185.704 123.207 185.751L127.321 186.541C127.571 186.589 127.735 186.843 127.69 187.105C127.65 187.341 127.457 187.507 127.238 187.507Z" fill="#363E44"/>
<path d="M120.475 175.286C120.365 175.286 120.255 175.248 120.17 175.165C119.655 174.68 119.198 174.232 118.719 173.767C118.331 173.387 117.928 172.992 117.473 172.557C117.285 172.381 117.27 172.071 117.44 171.872C117.609 171.674 117.902 171.656 118.09 171.837C118.547 172.275 118.952 172.67 119.345 173.055C119.817 173.515 120.272 173.96 120.782 174.438C120.97 174.62 120.987 174.924 120.818 175.125C120.727 175.233 120.601 175.286 120.475 175.286Z" fill="#363E44"/>
<path d="M86.4116 168.698C85.0132 164.245 87.293 159.435 91.5095 157.953L91.5285 157.948C90.8686 157.201 90.3398 156.3 90.0158 155.264C88.8081 151.43 90.7734 147.287 94.4038 146.014C95.1637 145.747 95.9332 145.636 96.6883 145.646C126.187 132.522 126.954 150.157 126.849 150.19C128.476 157.125 121.928 160.265 121.556 160.509C123.281 163.349 125.005 166.192 126.73 169.032C125.711 169.757 124.517 170.698 123.5 171.42C121.847 168.381 120.241 167.53 118.419 167.8C115.548 168.225 113.819 171.714 114.429 174.61C114.986 177.248 116.68 179.633 119.436 180.275C116.708 181.284 113.826 182.255 110.793 183.16C109.209 183.631 107.656 184.066 106.131 184.464C105.033 184.147 97.9342 181.965 94.3633 174.509C90.8734 174.657 87.5693 172.376 86.4116 168.698Z" fill="#363E44"/>
<path d="M103.275 147.795C103.275 169.895 86.3187 187.809 65.4006 187.809C44.4826 187.809 27.5238 169.895 27.5238 147.795C27.5238 125.694 44.4826 107.777 65.4006 107.777C86.3187 107.777 103.275 125.694 103.275 147.795Z" fill="#363E44"/>
<path d="M68.9621 104.804C49.7378 104.804 34.0963 121.33 34.0963 141.644C34.0963 161.956 49.7378 178.479 68.9621 178.479C88.1887 178.479 103.83 161.956 103.83 141.644C103.83 121.33 88.1887 104.804 68.9621 104.804ZM68.9621 179.452C49.2304 179.452 33.1744 162.489 33.1744 141.644C33.1744 120.794 49.2304 103.833 68.9621 103.833C88.6961 103.833 104.75 120.794 104.75 141.644C104.75 162.489 88.6961 179.452 68.9621 179.452Z" fill="#363E44"/>
<path d="M119.729 179.138C118.819 179.138 117.914 179.354 117.07 179.782C114.016 181.334 112.725 185.218 114.195 188.446C114.905 190.008 116.151 191.183 117.699 191.759C119.248 192.333 120.915 192.235 122.395 191.485C125.449 189.933 126.737 186.046 125.27 182.821C124.56 181.259 123.314 180.081 121.766 179.508C121.101 179.259 120.413 179.138 119.729 179.138ZM119.738 193.1C118.95 193.1 118.159 192.959 117.394 192.677C115.615 192.018 114.183 190.665 113.366 188.869C111.677 185.158 113.161 180.687 116.673 178.906C120.182 177.123 124.412 178.69 126.099 182.398C127.788 186.109 126.304 190.577 122.792 192.36C121.823 192.853 120.782 193.1 119.738 193.1Z" fill="#EFBC73"/>
<path d="M184.584 254.4C195.009 240.802 218.063 207.492 220.434 204.337C224.872 198.436 249.454 167.417 254.075 170.68C256.283 172.242 251.805 178.443 250.23 180.491C252.274 179.497 259.726 174.783 261.688 177.148C263.99 179.928 255.924 186.982 255.864 187.175C257.844 185.943 265.533 180.7 267.067 182.416C269.064 184.645 263.299 191.787 261.479 193.842C261.931 193.89 268.544 187.789 271.034 190.338C272.861 192.214 267.561 198.758 265.269 201.603C261.331 206.851 218.664 270.485 209.304 281.24C205.643 285.451 184.629 263.821 184.584 254.4Z" fill="#84524D"/>
<path d="M184.262 254.717C184.162 254.717 184.062 254.682 183.977 254.611C183.779 254.445 183.743 254.141 183.903 253.927C187.212 249.514 200.633 231.187 205.702 224.096C205.855 223.879 206.143 223.839 206.345 224C206.55 224.161 206.591 224.468 206.436 224.679C201.364 231.776 187.936 250.116 184.625 254.533C184.532 254.654 184.398 254.717 184.262 254.717Z" fill="#363E44"/>
<path d="M240.894 189.643C240.799 189.643 240.704 189.613 240.62 189.548C240.416 189.389 240.373 189.082 240.525 188.869C242.15 186.544 244.036 184.441 246.135 182.62C247.3 181.608 248.546 180.667 249.837 179.83C250.051 179.689 250.337 179.762 250.471 179.991C250.604 180.22 250.535 180.519 250.318 180.66C249.061 181.472 247.85 182.386 246.719 183.369C244.68 185.14 242.845 187.186 241.264 189.447C241.173 189.575 241.035 189.643 240.894 189.643Z" fill="#363E44"/>
<path d="M249.53 194.217C249.435 194.217 249.339 194.187 249.258 194.124C249.053 193.963 249.008 193.658 249.161 193.442C250.785 191.118 252.674 189.014 254.771 187.193C255.026 186.974 255.278 186.76 255.528 186.554C255.731 186.388 256.019 186.428 256.174 186.64C256.329 186.853 256.293 187.158 256.093 187.321C255.847 187.523 255.602 187.729 255.354 187.943C253.315 189.716 251.481 191.759 249.899 194.018C249.811 194.149 249.67 194.217 249.53 194.217Z" fill="#363E44"/>
<path d="M257.846 198.622C257.753 198.622 257.658 198.592 257.572 198.526C257.369 198.368 257.327 198.063 257.477 197.847C258.539 196.33 259.721 194.896 260.988 193.588C261.171 193.399 261.462 193.402 261.638 193.593C261.815 193.787 261.812 194.094 261.631 194.282C260.4 195.555 259.249 196.949 258.218 198.423C258.127 198.554 257.989 198.622 257.846 198.622Z" fill="#363E44"/>
<mask id="mask5_63_132" style="mask-type:luminance" maskUnits="userSpaceOnUse" x="14" y="201" width="236" height="155">
<path d="M14.0263 201.399H249.425V355.964H14.0263V201.399Z" fill="white"/>
</mask>
<g mask="url(#mask5_63_132)">
<path d="M212.189 209.844L187.671 240.065C187.671 240.065 158.406 222.533 99.3683 203.346C55.0357 188.939 28.8507 264.005 14.2812 308.397C23.4931 356.253 53.4277 411.409 112.604 400.698L141.669 325.368L155.019 283.466C155.019 283.466 203.206 302.485 227.509 270.397L248.97 243.474L212.189 209.844Z" fill="white"/>
</g>
<path d="M165.662 287.267C165.619 287.267 165.577 287.26 165.536 287.247C148.082 282.005 140.845 276.548 140.547 276.319C140.342 276.161 140.297 275.854 140.444 275.64C140.592 275.421 140.883 275.373 141.088 275.532C141.161 275.587 148.515 281.124 165.789 286.311C166.032 286.387 166.172 286.656 166.105 286.913C166.046 287.127 165.862 287.267 165.662 287.267Z" fill="#363E44"/>
<path d="M24.4198 278.84C24.3531 278.84 24.2864 278.825 24.2221 278.795C23.9934 278.676 23.8957 278.387 24.0053 278.143L36.2736 251.087C36.3832 250.845 36.6571 250.742 36.8882 250.858C37.1169 250.974 37.2122 251.265 37.1026 251.507L24.8343 278.563C24.7557 278.739 24.5913 278.84 24.4198 278.84Z" fill="#363E44"/>
<path d="M106.158 48.7266C106.158 70.9402 89.113 88.9501 68.0877 88.9501C47.0625 88.9501 30.0179 70.9402 30.0179 48.7266C30.0179 26.513 47.0625 8.50562 68.0877 8.50562C89.113 8.50562 106.158 26.513 106.158 48.7266Z" fill="#EFBC73"/>
<path d="M71.7659 9.47667C51.0289 9.47667 34.1559 27.3029 34.1559 49.2121C34.1559 71.1238 51.0289 88.9501 71.7659 88.9501C92.5052 88.9501 109.378 71.1238 109.378 49.2121C109.378 27.3029 92.5052 9.47667 71.7659 9.47667ZM71.7659 89.9211C50.5215 89.9211 33.2363 71.6597 33.2363 49.2121C33.2363 26.7671 50.5215 8.50562 71.7659 8.50562C93.0127 8.50562 110.298 26.7671 110.298 49.2121C110.298 71.6597 93.0127 89.9211 71.7659 89.9211Z" fill="#363E44"/>
<path d="M60.915 22.035C65.222 19.9696 69.9149 19.9746 75.0223 22.1683C74.1838 28.7695 71.6349 34.055 68.5642 40.2033C65.484 35.587 62.8136 29.0764 60.915 22.035ZM73.3572 46.8901L78.2931 37.8587C79.2269 36.6084 81.3804 30.6185 81.2994 29.0336C80.904 21.323 75.5988 15.0514 68.5642 15.0514C61.532 15.0514 55.829 21.3104 55.829 29.0336C55.829 32.8726 63.9309 47.763 63.9309 47.763L52.0533 68.4622L56.5937 77.569L68.4546 55.861L80.7015 78.2709L85.1347 68.4622L73.3572 46.8901Z" fill="#D87355"/>
<path d="M61.7392 17.2501C61.0198 18.3545 60.5148 19.6979 60.915 22.035C64.9576 19.9973 69.6171 19.9143 75.0223 22.1683C75.3487 20.6363 75.6393 19.1872 75.7227 17.5143C72.5996 14.7898 67.1825 13.5043 61.7392 17.2501Z" fill="#84524D"/>
<path d="M52.2915 68.3313C52.2105 68.3313 52.1271 68.3062 52.0532 68.2584C51.8365 68.1175 51.7674 67.8181 51.9008 67.5892L69.1979 37.8964C69.3313 37.6675 69.6148 37.5971 69.8315 37.7379C70.0483 37.8788 70.115 38.1782 69.9816 38.4071L52.6845 68.0974C52.5988 68.2483 52.4463 68.3313 52.2915 68.3313Z" fill="white"/>
<path d="M65.484 61.7956C65.4054 61.7956 65.3268 61.7755 65.2529 61.7302C65.0338 61.5944 64.9599 61.2975 65.0862 61.0661L73.8526 45.0587C73.9813 44.8298 74.2624 44.7492 74.4815 44.8851C74.7031 45.0159 74.7769 45.3153 74.6507 45.5467L65.8818 61.5516C65.7961 61.7076 65.6412 61.7956 65.484 61.7956Z" fill="white"/>
</svg>
