<svg width="830" height="725" viewBox="0 0 830 725" fill="none" xmlns="http://www.w3.org/2000/svg">
<mask id="mask0_38_2" style="mask-type:luminance" maskUnits="userSpaceOnUse" x="68" y="0" width="762" height="725">
<path d="M68.5457 0H830V725H68.5457V0Z" fill="white"/>
</mask>
<g mask="url(#mask0_38_2)">
<mask id="mask1_38_2" style="mask-type:luminance" maskUnits="userSpaceOnUse" x="-437" y="-176" width="2390" height="1228">
<path d="M-436.345 465.858L981.742 -175.242L1952.16 409.966L534.076 1051.07L-436.345 465.858Z" fill="white"/>
</mask>
<g mask="url(#mask1_38_2)">
<mask id="mask2_38_2" style="mask-type:luminance" maskUnits="userSpaceOnUse" x="-437" y="-176" width="2390" height="1228">
<path d="M-436.345 465.858L981.742 -175.242L1952.16 409.966L534.076 1051.07L-436.345 465.858Z" fill="white"/>
</mask>
<g mask="url(#mask2_38_2)">
<path d="M1331.21 104.345C1317.05 204.404 1208.59 288.863 1085.25 361.979C1031.23 394.001 972.283 428.883 955.246 471.937C938.855 513.341 971.917 550.889 1012.79 585.351C1061.29 626.254 1115.59 665.463 1116.46 715.612C1117.3 763.249 1069.23 809.006 980.374 825.169C937.306 833.004 888.371 832.797 847.602 821.467C803.323 809.158 773.206 787.038 738.997 768.605C686.977 740.576 625.509 727.246 552.342 739.455C479.471 751.615 419.633 779.145 345.686 789.974C254.567 803.316 150.375 780.242 107.79 735.72C84.7333 711.612 84.4132 684.675 111.887 661.521C137.132 640.247 176.661 624.755 213.565 609.352C265.428 587.7 328.316 556.092 319.859 517.873C315.324 497.403 288.816 481.842 261.016 468.387C197.308 437.554 181.341 435.681 135.467 406.419C108.663 389.323 69.9019 363.897 68.796 328.945C68.5107 319.909 67.7016 294.452 102.434 275.04C107.376 272.399 112.685 269.977 118.36 267.773C124.041 265.573 130.013 263.618 136.288 261.913C142.557 260.208 149.047 258.774 155.759 257.607C162.47 256.44 169.31 255.558 176.289 254.96C219.648 251.011 233.81 261.929 274.363 258.78C330.982 254.379 365.756 228.25 368.649 226.013C395.849 204.945 379.609 191.524 401.711 159.888C408.678 150.101 417.27 140.719 427.48 131.741C437.695 122.766 449.36 114.338 462.486 106.46C469.162 102.403 476.153 98.5003 483.458 94.7528C490.763 91.0023 498.36 87.4221 506.247 84.009C514.128 80.5928 522.277 77.359 530.682 74.3045C539.094 71.25 547.732 68.384 556.603 65.7094C565.473 63.0349 574.542 60.5609 583.815 58.2875C593.087 56.0111 602.523 53.9444 612.133 52.0874C621.737 50.2273 631.476 48.5831 641.342 47.1546C651.214 45.7261 661.185 44.5165 671.249 43.5257C715.359 39.3983 758.229 40.8481 801.92 45.5559C845.553 50.2607 887.76 54.6039 932.126 49.7046C1018.33 40.1825 1088.29 7.61959 1176.52 1.52887C1226.44 -1.91464 1279.42 4.18216 1308.1 27.6363C1335.23 49.8292 1334.8 79.0215 1331.21 104.345Z" fill="#E64329"/>
</g>
</g>
</g>
<mask id="mask3_38_2" style="mask-type:luminance" maskUnits="userSpaceOnUse" x="0" y="11" width="830" height="714">
<path d="M0 11.6708H830V725H0V11.6708Z" fill="white"/>
</mask>
<g mask="url(#mask3_38_2)">
<mask id="mask4_38_2" style="mask-type:luminance" maskUnits="userSpaceOnUse" x="-437" y="-176" width="2390" height="1228">
<path d="M-436.345 465.858L981.743 -175.242L1952.16 409.966L534.076 1051.07L-436.345 465.858Z" fill="white"/>
</mask>
<g mask="url(#mask4_38_2)">
<mask id="mask5_38_2" style="mask-type:luminance" maskUnits="userSpaceOnUse" x="-437" y="-176" width="2390" height="1228">
<path d="M-436.345 465.858L981.743 -175.242L1952.16 409.966L534.076 1051.07L-436.345 465.858Z" fill="white"/>
</mask>
<g mask="url(#mask5_38_2)">
<path d="M1153.04 12.698C1056.95 19.2567 974.449 57.3116 875.041 53.5824C825.169 51.7132 778.608 40.3646 728.718 38.0274C710.348 37.2067 691.966 37.1672 673.583 37.9088C655.201 38.6534 637.052 40.167 619.136 42.4495C609.584 43.6652 600.131 45.0755 590.788 46.6741C581.44 48.2728 572.232 50.0599 563.151 52.0354C554.071 54.0079 545.153 56.1628 536.399 58.5C527.638 60.8372 519.07 63.3476 510.688 66.0313C502.306 68.718 494.134 71.5689 486.177 74.5839C478.22 77.6019 470.496 80.7749 463.01 84.1059C455.524 87.437 448.301 90.9139 441.333 94.5398C434.366 98.1626 427.684 101.922 421.275 105.819C400.617 118.447 375.43 134.488 361.129 159.125C345.663 185.758 357.828 197.435 333.468 215.169C303.555 236.942 254.864 241.428 251.366 241.723C242.087 242.483 232.757 242.693 223.385 242.358C214.014 242.021 204.828 241.143 195.835 239.726C183.245 237.043 170.154 235.632 156.562 235.499C101.369 235.091 50.612 257.877 30.7281 280.237C-5.65772 321.155 49.3547 375.409 98.3251 405.425C135.351 428.119 180.689 446.875 216.93 469.855C252.99 492.716 258.391 518.933 229.055 544.326C180.748 586.144 83.8604 601.416 29.5523 640.173C-21.3506 676.496 -0.127954 723.182 58.1848 753.469C61.5609 755.219 65.0418 756.915 68.6215 758.55C72.2072 760.186 75.8859 761.763 79.6578 763.276C83.4355 764.79 87.2947 766.24 91.247 767.623C95.1993 769.009 99.2332 770.328 103.343 771.577C107.458 772.829 111.643 774.008 115.898 775.121C120.159 776.233 124.478 777.272 128.861 778.239C133.244 779.208 137.685 780.102 142.179 780.923C146.673 781.74 151.207 782.485 155.794 783.153C160.375 783.822 164.997 784.415 169.653 784.928C174.31 785.445 178.99 785.883 183.699 786.241C188.414 786.6 193.14 786.88 197.884 787.083C202.628 787.284 207.378 787.405 212.133 787.451C216.895 787.493 221.65 787.457 226.406 787.342C231.162 787.229 235.906 787.035 240.632 786.761C245.364 786.487 250.073 786.138 254.759 785.706C259.451 785.278 264.107 784.77 268.735 784.187C347.554 773.908 414.377 744.685 495.339 738.409C613.804 729.224 654.177 793.782 732.915 824.95C792.421 848.507 873.452 847.772 937.283 829.165C1010.97 807.687 1047.23 764.137 1046.58 721.261C1045.85 673.615 997.383 634.292 955.322 593.833C931.526 570.948 909.431 546.606 905.129 520.295C900.99 494.981 915.059 470.375 939.425 448.662C986.923 406.337 1062.54 375.066 1124.12 338.716C1188.25 300.859 1243.85 258.515 1281.94 211.905C1316.82 169.227 1345.79 115.629 1327.83 69.022C1310.6 24.3293 1233.67 7.19078 1153.04 12.698ZM1315.51 125.015C1290.45 224.493 1172.95 305.588 1041.83 374.914C984.397 405.279 921.747 438.35 900.03 480.824C879.151 521.675 908.063 560.143 945.106 595.766C989.065 638.046 1038.99 678.806 1034.4 728.896C1030.04 776.485 977.051 820.737 886.572 834.229C842.718 840.769 793.888 839.107 754.423 826.582C711.553 812.978 683.898 789.995 651.761 770.577C602.884 741.044 542.965 725.908 468.586 735.92C394.505 745.889 331.763 771.595 256.756 780.205C164.327 790.815 62.824 764.681 25.1634 718.961C4.77316 694.209 7.39834 667.308 37.358 645.006C64.8846 624.518 106.038 610.23 144.56 595.946C198.705 575.874 264.94 546.186 260.661 507.779C258.374 487.209 233.601 470.882 207.32 456.625C147.08 423.946 131.347 421.6 88.7382 391.022C63.8427 373.154 27.9225 346.618 30.6292 311.691C31.3277 302.661 33.3009 277.222 70.0942 258.874C75.3155 256.382 80.8802 254.123 86.7883 252.093C92.6964 250.066 98.8781 248.291 105.328 246.778C111.771 245.261 118.413 244.021 125.235 243.054C132.062 242.088 138.989 241.413 146.021 241.021C189.741 238.371 202.692 249.692 243.519 247.753C300.528 245.048 338.096 219.995 341.227 217.847C370.68 197.623 355.936 183.74 381.455 152.812C389.476 143.247 399.08 134.139 410.25 125.48C421.426 116.821 433.993 108.755 447.957 101.281C455.065 97.4302 462.469 93.7405 470.175 90.2149C477.876 86.6893 485.851 83.34 494.099 80.167C502.341 76.991 510.828 74.0064 519.559 71.2042C528.285 68.405 537.225 65.8034 546.37 63.3963C555.52 60.9891 564.845 58.7887 574.35 56.7949C583.856 54.8012 593.501 53.0171 603.297 51.4488C613.088 49.8775 622.989 48.525 633.001 47.3944C643.013 46.2608 653.094 45.349 663.251 44.6591C707.74 41.8508 750.383 44.574 793.486 50.5766C836.537 56.57 878.202 62.1623 923.034 58.5881C1010.14 51.6464 1083.54 21.2201 1172.29 17.7644C1222.5 15.8102 1274.73 23.4753 1300.8 47.7439C1325.47 70.7088 1321.85 99.8403 1315.51 125.015Z" fill="#E6294A"/>
</g>
</g>
</g>
<mask id="mask6_38_2" style="mask-type:luminance" maskUnits="userSpaceOnUse" x="140" y="472" width="90" height="107">
<path d="M140.072 472.281H229.48V578.874H140.072V472.281Z" fill="white"/>
</mask>
<g mask="url(#mask6_38_2)">
<mask id="mask7_38_2" style="mask-type:luminance" maskUnits="userSpaceOnUse" x="-437" y="-176" width="2390" height="1228">
<path d="M-436.345 465.858L981.743 -175.242L1952.16 409.966L534.076 1051.07L-436.345 465.858Z" fill="white"/>
</mask>
<g mask="url(#mask7_38_2)">
<mask id="mask8_38_2" style="mask-type:luminance" maskUnits="userSpaceOnUse" x="-437" y="-176" width="2390" height="1228">
<path d="M-436.345 465.858L981.743 -175.242L1952.16 409.966L534.076 1051.07L-436.345 465.858Z" fill="white"/>
</mask>
<g mask="url(#mask8_38_2)">
<path d="M147.854 577.929C182.436 566.921 211.883 544.685 224.509 524.681C236.464 505.728 218.577 488.522 195.311 474.289C190.829 471.545 177.558 472.891 183.222 476.578C207.349 492.273 223.17 508.117 206.592 527.921C190.911 546.652 164.874 559.645 141.574 575.51C138.873 577.352 145.165 578.786 147.86 577.929H147.854Z" fill="#E6294A"/>
</g>
</g>
</g>
<mask id="mask9_38_2" style="mask-type:luminance" maskUnits="userSpaceOnUse" x="135" y="451" width="38" height="18">
<path d="M135.601 451.273H172.854V468.39H135.601V451.273Z" fill="white"/>
</mask>
<g mask="url(#mask9_38_2)">
<mask id="mask10_38_2" style="mask-type:luminance" maskUnits="userSpaceOnUse" x="-437" y="-176" width="2390" height="1228">
<path d="M-436.345 465.858L981.742 -175.242L1952.16 409.966L534.076 1051.07L-436.345 465.858Z" fill="white"/>
</mask>
<g mask="url(#mask10_38_2)">
<mask id="mask11_38_2" style="mask-type:luminance" maskUnits="userSpaceOnUse" x="-437" y="-176" width="2390" height="1228">
<path d="M-436.345 465.858L981.742 -175.242L1952.16 409.966L534.076 1051.07L-436.345 465.858Z" fill="white"/>
</mask>
<g mask="url(#mask11_38_2)">
<path d="M171.824 466.214C169.333 463.658 165.928 461.494 161.62 459.716C156.836 457.37 152.179 454.911 147.097 452.741C142.068 450.598 132.679 452.744 138.459 455.914C146.329 460.233 156.178 465.785 166.836 468.083C168.989 468.548 173.087 467.74 171.83 466.214H171.824Z" fill="#E6294A"/>
</g>
</g>
</g>
<mask id="mask12_38_2" style="mask-type:luminance" maskUnits="userSpaceOnUse" x="557" y="12" width="239" height="23">
<path d="M557.307 12.4489H795.727V34.2344H557.307V12.4489Z" fill="white"/>
</mask>
<g mask="url(#mask12_38_2)">
<mask id="mask13_38_2" style="mask-type:luminance" maskUnits="userSpaceOnUse" x="-437" y="-176" width="2390" height="1228">
<path d="M-436.345 465.858L981.743 -175.242L1952.16 409.966L534.076 1051.07L-436.345 465.858Z" fill="white"/>
</mask>
<g mask="url(#mask13_38_2)">
<mask id="mask14_38_2" style="mask-type:luminance" maskUnits="userSpaceOnUse" x="-437" y="-176" width="2390" height="1228">
<path d="M-436.345 465.858L981.743 -175.242L1952.16 409.966L534.076 1051.07L-436.345 465.858Z" fill="white"/>
</mask>
<g mask="url(#mask14_38_2)">
<path d="M565.154 33.502C573.716 31.4019 582.447 29.5175 591.353 27.852C600.259 26.1865 609.293 24.7428 618.461 23.5271C627.634 22.3083 636.889 21.3236 646.238 20.5668C655.586 19.81 664.98 19.2842 674.422 18.9955C683.869 18.7068 693.316 18.6521 702.769 18.8314C712.222 19.0107 721.64 19.4271 731.018 20.0745C740.395 20.7218 749.691 21.6032 758.911 22.7126C768.125 23.8219 777.223 25.1592 786.193 26.7214C794.872 28.2532 798.411 22.591 789.755 21.044C780.39 19.3268 770.878 17.8679 761.227 16.6613C751.577 15.4547 741.833 14.5095 731.995 13.8257C722.158 13.1418 712.28 12.7194 702.362 12.5644C692.437 12.4063 682.53 12.5158 672.629 12.8896C662.734 13.2634 652.897 13.9017 643.123 14.8013C633.35 15.7009 623.688 16.8589 614.142 18.2752C604.595 19.6915 595.218 21.3601 585.998 23.2779C576.778 25.1987 567.773 27.3566 558.978 29.7576C554.094 31.0888 561.155 34.4685 565.154 33.502Z" fill="#E6294A"/>
</g>
</g>
</g>
<mask id="mask15_38_2" style="mask-type:luminance" maskUnits="userSpaceOnUse" x="470" y="41" width="61" height="22">
<path d="M470.88 41.2371H530.485V62.2446H470.88V41.2371Z" fill="white"/>
</mask>
<g mask="url(#mask15_38_2)">
<mask id="mask16_38_2" style="mask-type:luminance" maskUnits="userSpaceOnUse" x="-437" y="-176" width="2390" height="1228">
<path d="M-436.345 465.858L981.743 -175.242L1952.16 409.966L534.076 1051.07L-436.345 465.858Z" fill="white"/>
</mask>
<g mask="url(#mask16_38_2)">
<mask id="mask17_38_2" style="mask-type:luminance" maskUnits="userSpaceOnUse" x="-437" y="-176" width="2390" height="1228">
<path d="M-436.345 465.858L981.743 -175.242L1952.16 409.966L534.076 1051.07L-436.345 465.858Z" fill="white"/>
</mask>
<g mask="url(#mask17_38_2)">
<path d="M520.083 41.4739C510.083 43.1334 500.688 45.4614 491.904 48.4551C484.233 51.0476 475.21 53.9167 471.462 58.3845C469.471 60.7521 476.98 62.6395 480.467 61.8098C488.133 59.9892 493.825 56.5852 500.77 54.0839C509.012 51.2087 517.691 48.7469 526.794 46.7015C534.664 44.8597 526.364 40.4375 520.083 41.4739Z" fill="#E6294A"/>
</g>
</g>
</g>
</svg>
